<?xml version="1.0" encoding="UTF-8" standalone="no"?>
<svg
   xmlns:dc="http://purl.org/dc/elements/1.1/"
   xmlns:cc="http://creativecommons.org/ns#"
   xmlns:rdf="http://www.w3.org/1999/02/22-rdf-syntax-ns#"
   xmlns:svg="http://www.w3.org/2000/svg"
   xmlns="http://www.w3.org/2000/svg"
   xmlns:sodipodi="http://sodipodi.sourceforge.net/DTD/sodipodi-0.dtd"
   xmlns:inkscape="http://www.inkscape.org/namespaces/inkscape"
   viewBox="0 0 698.20718 194.83151"
   version="1.1"
   id="svg3787"
   sodipodi:docname="logo.svg"
   inkscape:version="0.92.4 (5da689c313, 2019-01-14)"
   width="162.37376"
   height="45.309654">
  <metadata
     id="metadata3791">
    <rdf:RDF>
      <cc:Work
         rdf:about="">
        <dc:format>image/svg+xml</dc:format>
        <dc:type
           rdf:resource="http://purl.org/dc/dcmitype/StillImage" />
        <dc:title></dc:title>
      </cc:Work>
    </rdf:RDF>
  </metadata>
  <sodipodi:namedview
     pagecolor="#ffffff"
     bordercolor="#666666"
     borderopacity="1"
     objecttolerance="10"
     gridtolerance="10"
     guidetolerance="10"
     inkscape:pageopacity="0"
     inkscape:pageshadow="2"
     inkscape:window-width="1920"
     inkscape:window-height="1172"
     id="namedview3789"
     showgrid="false"
     inkscape:zoom="2.890359"
     inkscape:cx="381.44707"
     inkscape:cy="2.9996858"
     inkscape:window-x="0"
     inkscape:window-y="28"
     inkscape:window-maximized="1"
     inkscape:current-layer="svg3787"
     scale-x="4.3"
     fit-margin-top="0"
     fit-margin-left="0"
     fit-margin-right="0"
     fit-margin-bottom="0" />
  <defs
     id="defs3779">
    <clipPath
       id="a"
       clipPathUnits="userSpaceOnUse">
      <path
         d="M 0,146.5 H 553.383 V 0 H 0 Z"
         id="path3776"
         inkscape:connector-curvature="0" />
    </clipPath>
  </defs>
  <path
     inkscape:connector-curvature="0"
     id="path3783"
     d="m 554.12241,33.930582 c 9.60665,0 17.04263,-7.279982 17.04263,-16.733292 C 571.16504,7.7466473 563.88372,0 554.12241,0 c -9.45064,0 -16.73329,7.7466473 -16.73329,17.19729 0,9.45331 7.28265,16.733292 16.73329,16.733292 m -373.08306,55.93186 c -3.40933,15.957288 -15.18396,31.451918 -31.14259,31.451918 -5.11199,0 -9.60531,-2.01333 -11.77464,-5.88799 l 0.77333,-2.63332 c 8.83331,-25.254602 23.86128,-39.043901 34.70658,-39.043901 6.66265,0 9.45065,6.817316 7.43732,16.113293 m -107.3704,-6.50665 c -8.830644,24.323938 -23.706607,37.649238 -34.085248,37.649238 -6.66265,0 -9.606643,-6.19866 -7.591981,-15.33863 3.253325,-14.409295 15.183962,-32.071917 28.198596,-32.071917 6.197318,0 11.154639,2.323994 14.407964,6.971982 z m 137.58232,3.562657 c 4.64799,-21.999945 -2.16933,-39.507901 -22.31061,-39.507901 -12.23997,0 -23.23994,6.351984 -32.53592,16.577292 l -0.15466,-0.463999 1.70399,-5.267987 c 1.54933,-4.493322 -1.85866,-9.14131 -6.66265,-9.14131 h -15.02929 c -2.944,0 -5.57732,1.858662 -6.50665,4.647988 L 107.75553,117.7517 c -5.26932,6.04132 -10.071973,9.44931 -14.254629,9.44931 -3.407992,0 -4.647989,-2.16933 -4.493323,-5.26665 L 111.31819,58.255854 c 1.54933,-4.493322 -1.704,-9.295976 -6.50665,-9.295976 H 89.782243 c -2.943992,0 -5.577319,1.858662 -6.50665,4.647988 l -0.774665,2.169328 H 81.88093 c -3.873324,-5.267987 -10.69064,-8.522645 -20.761282,-8.522645 -25.410603,0 -51.5932038,26.339934 -59.4958507,60.734511 -5.1119872,22.31194 1.7039958,39.50923 22.4666097,39.50923 10.843973,0 28.971928,-4.80265 38.422571,-15.02796 0,0 3.099992,15.18263 18.902619,15.18263 6.351985,0 13.634633,-3.25333 18.901283,-6.97198 5.42399,-3.71733 9.91731,-8.05598 9.91731,-8.05598 0,0 -4.18399,9.75997 -12.706633,15.95862 l -14.561297,39.9719 c -1.083997,3.09866 1.083998,6.27599 4.338656,6.27599 h 15.801294 c 4.02932,0 7.59198,-2.55733 8.83198,-6.27599 l 18.28262,-47.25454 c 4.95732,4.49332 12.85863,6.35198 21.99994,6.35198 25.8746,-0.15467 51.74921,-26.3386 59.03052,-60.734511 m 72.81982,3.098659 c -3.25333,15.802622 -15.02796,31.297252 -31.14126,31.297252 -5.11332,0 -9.60664,-2.01333 -11.77597,-5.88799 l 0.77334,-2.63332 c 8.83331,-25.253269 23.86127,-39.043901 34.70658,-39.043901 6.66265,0 9.45197,6.973316 7.43731,16.267959 m 94.6651,-17.662622 c 4.64798,0 6.81731,2.169328 5.73332,6.197318 -2.324,9.605309 -16.42396,13.3253 -31.29726,15.027962 6.50665,-13.633299 17.04262,-21.22528 25.56394,-21.22528 M 484.55726,48.494545 c -10.69064,0 -20.14129,2.633327 -28.8186,11.930637 l 0.77333,-1.859995 c 1.86133,-4.493322 -1.54666,-9.450643 -6.50665,-9.450643 h -13.78796 c -2.944,0 -5.57732,1.858662 -6.50799,4.493322 l -15.02796,40.437232 c -17.35329,17.507962 -39.6639,32.071912 -59.33985,28.818592 -4.33866,-1.08533 -7.90265,-4.80266 -7.74665,-11.77597 28.81726,-2.944 58.87452,-12.083968 64.76251,-36.40924 4.33865,-17.971955 -11.15464,-26.338601 -26.64794,-26.338601 -27.88926,0 -51.1292,19.831951 -61.81984,46.170551 -4.02799,-0.310666 -7.74665,-0.930664 -11.00131,-1.549329 0.62,-2.013328 1.08533,-4.026657 1.54933,-6.197318 4.64932,-21.999945 -2.16933,-39.509234 -22.31061,-39.509234 -12.23997,0 -23.23994,6.353317 -32.53592,16.578625 l -0.15467,-0.465332 1.704,-5.266654 c 1.54933,-4.493322 -1.85866,-9.14131 -6.66132,-9.14131 h -15.02929 c -2.94399,0 -5.57732,1.858662 -6.50799,4.647988 L 185.99534,188.55552 c -1.08267,3.09866 1.08666,6.27599 4.33998,6.27599 h 15.80396 c 4.02666,0 7.59065,-2.55733 8.83065,-6.27599 l 18.28262,-47.25588 c 4.95732,4.49466 12.85997,6.35332 21.99995,6.35332 20.45194,0 40.90256,-16.42263 52.2132,-40.2839 0.156,0 10.99997,3.25466 28.35459,2.47999 -7.90264,5.112 -17.19995,4.64799 -17.19995,4.64799 -0.15334,1.85866 -0.308,3.87333 -0.308,6.04265 0.62,17.19996 12.5493,27.26794 32.22658,27.26794 37.64924,0 63.05851,-34.08525 63.05851,-34.08525 0,0 -3.09999,6.66265 -5.11332,9.60531 -2.63332,4.02799 -6.35198,8.21331 -6.35198,8.21331 l -3.40933,8.98398 c -1.23999,3.25466 1.24,6.81865 4.64932,6.81865 h 14.71863 c 4.18133,0 7.89999,-2.63466 9.13998,-6.66265 l 20.60662,-57.945187 c 6.04265,-7.127982 12.85996,-12.859968 20.75995,-12.859968 10.07197,0 10.84663,8.675979 7.28264,18.74662 l -6.35065,17.663955 c -1.70666,4.80132 -8.05731,24.01327 -11.31197,34.23991 -1.084,3.25333 1.39466,6.50665 4.80399,6.50665 h 15.64796 c 4.18399,0 7.90265,-2.78933 9.29598,-6.81732 l 17.19729,-52.36786 c 7.28265,-21.070614 2.01333,-39.353235 -20.60528,-39.353235 m 210.24747,43.691891 c -3.09866,-1.549329 -6.66265,-0.309332 -8.21331,2.479994 -11.15464,19.83061 -22.31061,33.15458 -30.52259,33.15458 -5.88532,0 -5.42132,-6.35332 -2.94266,-13.0133 l 8.67731,-24.790602 c 7.43598,-21.070614 2.32399,-41.522563 -20.29728,-41.522563 -10.68931,0 -20.14129,4.802655 -28.97326,14.098632 l 1.39466,-4.337323 c 1.54933,-4.493322 -1.86,-9.14131 -6.66265,-9.14131 h -14.2533 c -2.94399,0 -5.57732,1.858662 -6.50798,4.647988 l -18.74662,54.226528 c -8.21065,12.39598 -16.42263,19.83195 -24.16928,19.83195 -7.74798,0 -8.67731,-6.66265 -5.73331,-15.18396 l 18.43728,-54.381196 c 1.548,-4.493322 -1.85999,-9.14131 -6.66265,-9.14131 h -14.0973 c -2.94399,0 -5.57865,1.858662 -6.66265,4.647988 l -17.66262,52.213198 c -7.74665,22.93061 -2.63466,42.14256 20.45328,42.14256 9.13865,0 17.66129,-3.25332 25.25327,-8.83198 l 11.30931,-8.98664 c 0,0 -1.704,4.49466 -5.88799,9.91597 -4.18265,5.42266 -8.05731,7.12799 -8.05731,7.12799 h 21.84661 c 4.18399,0 7.90265,-2.63466 9.29731,-6.66265 l 19.36529,-55.621193 c 6.04398,-7.127982 12.8613,-12.859967 20.76261,-12.859967 10.06931,0 10.84398,8.675978 7.28265,18.746619 L 626.3249,108.4544 c -5.88932,16.73329 -6.35465,39.50923 16.73063,39.50923 21.38261,0 39.81856,-19.83329 54.38386,-47.25588 1.70266,-3.098661 0.464,-6.971984 -2.63466,-8.51998"
     style="stroke-width:1.33333004" />
</svg>
